# xmcd
#
# Track frame offsets:
#	150
#	14952
#	30400
#	39857
#	59572
#	70115
#	81132
#	94005
#	104640
#	117537
#	134032
#	143290
#	154982
#	173462
#
# Disc length: 2389 seconds
#
# Revision: 0
# Processed by: cddbd v1.5.1PL0 Copyright (c) Steve Scherf et al.
# Submitted via: audiograbber 1.81.02
#
DISCID=bd09530e
DTITLE=Tim Thomas und Olaf Franke - Mit Freddy durch die Bibel 3 - Ein Lächeln 
DTITLE=für Isaak (www.gerth.de)
DYEAR=2005
DGENRE=Musical
TTITLE0=Das Bobelbabelbibelbuch
TTITLE1=Eugen will eine Liebesgeschichte hören
TTITLE2=Isaak ist auf Zack
TTITLE3=Isaak sucht eine Frau
TTITLE4=Oasengesang
TTITLE5=Eliesers Gebet
TTITLE6=Rebekka tritt zur Quelle
TTITLE7=Rebekka-Rap
TTITLE8=Laban regt sich auf
TTITLE9=Isaaks und Rebekkas Liebeslied
TTITLE10=Rebekka stimmt zu
TTITLE11=Der Bleib-doch-Song
TTITLE12=Rebekka trifft Isaak
TTITLE13=Das Bobelbabelbibelbuch
EXTD=
EXTT0=
EXTT1=
EXTT2=
EXTT3=
EXTT4=
EXTT5=
EXTT6=
EXTT7=
EXTT8=
EXTT9=
EXTT10=
EXTT11=
EXTT12=
EXTT13=
PLAYORDER=
